PathFileType	4	(X/Y/Z)	D:\TRACE\v60_Jaco2_6-2-23\BothDRS_Motion3_6-v60.trc
DataRate	CameraRate	NumFrames	NumMarkers	Units	OrigDataRate	OrigDataStartFrame	OrigNumFrames
100.00	100.00	      17	9	mm	100.00	1751	      7000
Frame#	Time	front left toe			Front right toe			aft left toe			aft right toe			Arm			FL body			FR body			AL Body			AR Body			
		X1	Y1	Z1	X2	Y2	Z2	X3	Y3	Z3	X4	Y4	Z4	X5	Y5	Z5	X6	Y6	Z6	X7	Y7	Z7	X8	Y8	Z8	X9	Y9	Z9	

1751	17.500	-211.33455	12.10619	-177.50082	198.68599	21.81323	-206.95833	-161.76469	34.14276	425.45453	166.58881	15.76658	441.55115	38.05809	1117.17310	-586.94440	-86.12391	506.43994	-365.85562	72.64121	501.97501	-369.57166	-56.36002	568.89984	576.19336	94.53455	555.42181	572.27112	
1752	17.510	-211.37691	12.12765	-177.44249	199.85614	16.03441	-208.99496	-160.21416	27.27515	424.21600	166.67351	15.56843	441.58344	39.28728	1116.92041	-588.05878	-85.42355	506.24780	-366.92416	73.53419	501.61505	-370.66742	-54.62325	569.05463	575.26984	96.32689	555.70123	571.82434	
1753	17.520	-211.37283	12.20640	-177.43806	201.13385	14.87295	-210.29800	-159.12416	20.77548	422.92795	166.70879	15.47109	441.59357	39.11694	1116.82788	-589.20355	-84.62132	506.12393	-367.57880	74.12795	501.67563	-371.70975	-52.64505	568.95093	574.39917	97.90527	555.65497	570.56580	
1754	17.530	-211.25899	12.27672	-177.51227	200.26350	13.99268	-210.87892	-159.23289	19.59198	422.31488	166.62582	15.25245	441.46677	39.60118	1116.56531	-590.78424	-83.99325	506.78757	-368.90262	74.78918	502.49377	-373.09503	-50.87443	569.12683	573.15454	99.49989	556.01398	569.42297	
1755	17.540	-211.16167	12.45945	-177.55611	200.49490	13.49006	-210.27721	-159.26918	20.03617	421.45444	166.52594	15.36565	440.94608	39.73752	1116.65173	-592.16638	-83.33012	507.14728	-369.51663	75.70984	502.33212	-373.77341	-48.93695	570.62311	572.13263	102.64795	557.46082	569.15479	
1756	17.550	-210.70386	13.24896	-177.85027	200.20567	13.06686	-210.49596	-158.77254	20.56587	421.87735	166.73701	16.38220	440.47067	40.12416	1117.08887	-593.87219	-82.85765	507.27646	-370.12714	75.95304	502.51273	-374.92075	-46.78611	572.74731	571.50867	103.64985	559.13379	567.27850	
1757	17.560	-208.66780	16.03150	-177.12735	200.51460	12.37594	-210.94173	-157.75459	19.43690	421.83960	165.73399	18.72578	442.32306	40.61723	1117.41248	-596.03979	-82.45335	507.51941	-370.81619	76.31733	502.80905	-375.56836	-45.10086	574.47131	570.72900	105.26501	560.59753	566.34436	
1758	17.570	-205.24333	19.52107	-174.20758	200.84541	12.46795	-210.85698	-156.85480	19.33547	422.18723	164.43878	21.65225	445.84891	40.84567	1117.23462	-598.21082	-81.78889	507.99515	-370.99118	76.30328	503.30386	-375.99561	-43.57918	575.54559	569.99768	106.59984	561.64160	565.39197	
1759	17.580	-200.45110	22.96025	-171.48906	200.85143	12.50396	-210.91508	-156.99138	19.34516	421.86597	162.40735	30.23675	445.48737	41.66903	1116.31885	-599.54456	-81.44917	508.57358	-371.79187	76.54017	503.73087	-376.90393	-41.90519	576.25562	569.52130	108.49884	562.34003	564.69684	
1760	17.590	-198.64445	33.09561	-173.16022	200.74008	12.30025	-210.93552	-156.83704	19.40422	422.33624	161.69933	37.90737	445.55566	42.50285	1115.76001	-600.17639	-80.77153	508.81082	-372.47952	78.14492	503.75357	-377.78705	-40.54855	576.68610	568.67883	109.56218	562.69171	563.85138	
1761	17.600	-197.78169	43.23583	-174.65387	200.61710	12.11584	-210.88773	-156.85025	19.23361	422.08020	162.75238	49.53576	442.46356	43.48853	1115.95007	-600.53180	-80.14782	508.58408	-373.03577	78.56801	503.66504	-378.48386	-39.47405	576.91742	567.90942	110.76066	562.91241	563.26044	
1762	17.610	-198.40865	53.42379	-176.74008	200.53885	11.90120	-210.90878	-156.84418	19.08894	421.92667	165.02367	59.14633	439.95776	44.60381	1116.33899	-600.91882	-79.47233	508.24304	-373.75385	79.42793	503.33627	-379.32306	-39.10163	576.79333	567.34363	111.30749	562.75043	562.71924	
1763	17.620	-198.50252	65.08022	-179.47078	200.62856	11.78899	-210.84520	-157.02647	18.86468	421.98358	169.42482	70.39848	436.52023	45.27501	1116.64319	-601.25275	-78.64482	507.98038	-374.52286	80.29546	502.92786	-379.73172	-38.89690	576.28729	566.65710	111.51673	562.05481	562.21527	
1764	17.630	-197.74170	76.84725	-182.05658	200.74319	11.92723	-210.76340	-157.05099	18.45479	421.94406	174.29430	81.43676	433.79111	46.41806	1116.50952	-601.28564	-77.71207	507.95471	-374.97305	80.95972	502.93695	-380.25980	-38.97916	575.39355	566.19983	112.01481	561.35840	561.90186	
1765	17.640	-195.94363	87.23831	-183.69084	200.74126	11.77453	-210.69118	-157.12679	18.30658	421.92999	177.63440	91.67480	430.76974	47.62023	1116.23035	-601.44269	-77.07082	508.10547	-375.48584	81.47034	502.82758	-380.66135	-38.46120	574.82727	565.71741	112.01044	560.52856	561.43567	
1766	17.650	-195.02359	98.75445	-186.85896	200.70454	11.66841	-210.69284	-157.17755	18.12586	421.76392	180.82957	101.94006	428.24600	49.17539	1116.04688	-601.51691	-76.76834	508.31711	-376.37997	82.14193	502.83020	-381.34180	-38.55273	574.22260	565.10577	112.05945	559.73224	561.06647	
1767	17.660	-193.76373	108.97647	-189.12910	200.89508	11.68076	-210.55174	-157.22617	18.01505	421.77341	182.60922	111.97596	425.30807	50.71939	1116.30005	-601.53961	-76.16376	508.16690	-376.77408	82.44498	502.61044	-381.68304	-38.34124	573.93036	564.73151	112.28096	559.38867	560.77728	
